<?xml version="1.0" standalone="no"?>
<!DOCTYPE svg PUBLIC "-//W3C//DTD SVG 20010904//EN"
 "http://www.w3.org/TR/2001/REC-SVG-20010904/DTD/svg10.dtd">
<svg version="1.0" xmlns="http://www.w3.org/2000/svg"
 width="1280.000000pt" height="1280.000000pt" viewBox="0 0 1280.000000 1280.000000"
 preserveAspectRatio="xMidYMid meet">
<metadata>
Created by potrace 1.15, written by Peter Selinger 2001-2017
</metadata>
<g transform="translate(0.000000,1280.000000) scale(0.100000,-0.100000)"
fill="#2196f3" stroke="none">
<path d="M6075 10719 c-1223 -97 -2316 -679 -3077 -1639 -367 -463 -645 -1024
-792 -1600 -459 -1789 261 -3664 1799 -4687 501 -333 1066 -559 1644 -658 290
-49 415 -59 751 -59 336 0 461 10 751 59 1192 203 2273 932 2921 1970 793
1270 875 2859 217 4200 -644 1314 -1924 2225 -3364 2394 -257 31 -614 39 -850
20z"/>
</g>
</svg>
